<svg width="137" height="27" viewBox="0 0 137 27" fill="none" xmlns="http://www.w3.org/2000/svg">
<path d="M28.8 21.2C29.32 21.2 29.68 21.72 29.68 22.2C29.68 23.84 25.08 26.12 23.56 26.12C21.4 26.12 19.96 24.52 18.72 22.96C17.56 23.52 16.32 24.04 15.04 24.4C13.8 24.76 12.48 24.96 11.16 24.96C5.08 24.96 0.52 20.44 0.52 14.36C0.52 6.72 7.56 0.199999 15.08 0.199999C18.04 0.199999 21.48 1.28 22.72 4.24C25.28 5.64 26.84 7.92 26.84 10.92C26.84 14.88 24.08 19.36 20.84 21.6C21.72 22.6 22.4 23.96 23.96 23.96C26 23.96 27.96 21.2 28.8 21.2ZM10.44 20.48L10.48 20.28C11.12 18.28 13.16 17.6 15.08 17.6C16.92 17.6 18.48 18.56 19.6 20.04C22.24 18 24.72 15 24.72 11.44C24.72 9.88 24.16 8 22.84 7.04C22.72 7.6 22.44 8.48 21.72 8.48C20.76 8.48 20.88 7.44 20.88 6.8C20.88 6.36 20.88 5.96 20.48 5.68C19.36 4.92 16.68 4.64 15.36 4.64C14 4.64 12.64 4.8 11.36 5.24C11.24 5.28 11.08 5.32 10.96 5.32C10.48 5.32 9.96 4.96 9.96 4.44C9.96 2.92 14.36 2.64 15.48 2.64C16.32 2.64 17.2 2.72 18.04 2.8C17.52 2.6 17 2.44 16.44 2.36C15.88 2.28 15.32 2.24 14.76 2.24C8.32 2.24 2.64 8.12 2.64 14.52C2.64 19.48 6.76 22.96 11.56 22.96C13.64 22.96 15.68 22.24 17.52 21.28C16.8 20.36 15.56 19.64 14.4 19.64C12.44 19.64 12.56 21.44 11.52 21.44C10.96 21.44 10.44 21.04 10.44 20.48ZM45.6691 18C45.6691 18.16 45.6291 18.32 45.5491 18.44C44.7091 20.32 42.1091 23.52 39.8691 23.52C38.4691 23.52 37.1091 22.6 36.4691 21.36C35.2291 22.48 33.5491 23.96 31.7891 23.96C29.5891 23.96 28.9091 21.96 28.9091 20.08C28.9091 18.52 29.6691 15.72 30.4691 14.36C30.7091 14 31.1491 13.76 31.5891 13.76C32.1891 13.76 32.6291 14.2 32.6291 14.8C32.6291 15.84 30.9891 17.52 30.9891 19.96C30.9891 20.72 31.2291 21.92 32.1891 21.92C33.5091 21.92 35.1891 20.16 35.9091 19.2C35.9491 17.96 36.6291 14.32 38.2691 14.32C39.0291 14.32 39.3891 15.08 39.3891 15.76C39.3891 17.28 38.3891 18.12 38.1091 19.12C38.2691 20.08 38.7891 21.36 39.9491 21.36C42.4691 21.36 43.4691 17.16 44.8291 17.16C45.2691 17.16 45.6691 17.56 45.6691 18ZM48.2384 9.72C48.2384 10.88 47.3584 12.08 46.1184 12.08C45.3984 12.08 44.7984 11.64 44.7984 10.88C44.7984 9.72 45.4784 8.04 46.8784 8.04C47.7984 8.04 48.2384 8.92 48.2384 9.72ZM52.4384 17.72C52.4384 19.28 49.9584 21.96 48.7584 22.88C48.0384 23.4 47.1584 23.72 46.2784 23.72C44.1184 23.72 43.5984 21.8 43.5984 20C43.5984 18.72 43.7184 13.88 45.5184 13.88C46.1184 13.88 46.4784 14.36 46.4784 14.92C46.4784 16.08 45.7184 18.16 45.7184 19.88C45.7184 20.6 45.7184 21.68 46.7184 21.68C48.3184 21.68 50.0784 18.6 50.7184 17.44C50.9184 17.16 51.2384 16.88 51.5984 16.88C52.0784 16.88 52.4384 17.24 52.4384 17.72ZM64.5963 17.68C64.5963 17.84 64.5563 18 64.4763 18.16C63.4363 19.96 61.1562 20.68 59.1963 20.36C58.2763 22.32 56.5963 24.44 54.2363 24.44C51.0362 24.44 50.5562 20.48 50.5562 18.08C50.5562 14.8 52.9963 2.28 57.1563 2.28C59.0763 2.28 59.7163 4.44 59.7163 6C59.7163 10.4 55.6763 15.4 52.6763 18.24C52.6763 19.4 53.0763 22.32 54.6363 22.32C55.7563 22.32 56.9963 20.68 57.3963 19.72C56.4763 19.08 56.1163 18 56.1163 16.92C56.1163 16.04 56.9963 15.24 57.8363 15.24C59.0763 15.24 59.7963 16.28 59.7963 17.44C59.7963 17.8 59.7563 18.2 59.6763 18.56C59.8363 18.6 59.9963 18.6 60.1563 18.6C62.4763 18.6 62.8763 16.88 63.7963 16.88C64.1963 16.88 64.5963 17.24 64.5963 17.68ZM57.5963 6.08C57.5963 5.64 57.5563 4.52 56.9163 4.48C54.8363 5.84 53.1963 13.04 52.7963 15.56C55.0363 13.24 57.5963 9.48 57.5963 6.08ZM76.7838 17.68C76.7838 17.84 76.7438 18 76.6638 18.16C75.6238 19.96 73.3438 20.68 71.3838 20.36C70.4638 22.32 68.7838 24.44 66.4238 24.44C63.2237 24.44 62.7437 20.48 62.7437 18.08C62.7437 14.8 65.1838 2.28 69.3438 2.28C71.2638 2.28 71.9038 4.44 71.9038 6C71.9038 10.4 67.8638 15.4 64.8638 18.24C64.8638 19.4 65.2638 22.32 66.8238 22.32C67.9438 22.32 69.1838 20.68 69.5838 19.72C68.6638 19.08 68.3038 18 68.3038 16.92C68.3038 16.04 69.1838 15.24 70.0238 15.24C71.2638 15.24 71.9838 16.28 71.9838 17.44C71.9838 17.8 71.9438 18.2 71.8638 18.56C72.0238 18.6 72.1838 18.6 72.3438 18.6C74.6638 18.6 75.0638 16.88 75.9838 16.88C76.3838 16.88 76.7838 17.24 76.7838 17.68ZM69.7838 6.08C69.7838 5.64 69.7438 4.52 69.1038 4.48C67.0238 5.84 65.3838 13.04 64.9838 15.56C67.2238 13.24 69.7838 9.48 69.7838 6.08ZM84.6113 18C84.6113 20.36 81.8913 23.64 79.2913 23.64C75.6913 23.64 74.9312 19.08 74.9312 16.28C74.9312 13.36 76.4513 2.44 80.2513 2.44C81.7713 2.44 82.4113 4.12 82.4113 5.4C82.4113 9.44 79.6513 14.6 77.1713 17.76C77.4113 18.92 78.0913 21.56 79.6913 21.56C82.0913 21.56 82.4513 17.08 83.8113 17.08C84.3713 17.08 84.6113 17.48 84.6113 18ZM80.4913 5.8C80.4913 5.36 80.4513 4.92 80.1313 4.6C80.0113 4.64 79.8913 4.72 79.7713 4.8C77.8113 6.6 77.1313 12.16 77.0513 14.64C78.4113 12.48 80.4913 8.4 80.4913 5.8ZM93.98 17.72C93.98 17.88 93.94 18.04 93.86 18.16C92.74 20.44 89.94 22.88 87.3 22.88C84.54 22.88 82.94 20.48 82.94 17.92C82.94 15.28 84.74 11.56 87.74 11.56C89.14 11.56 89.94 12.6 89.94 13.96C89.94 16.36 87.54 18.72 85.18 18.8C85.46 20 86.3 20.76 87.54 20.76C89.78 20.76 91.22 18.88 92.42 17.28C92.66 16.96 92.74 16.84 93.14 16.84C93.62 16.84 93.98 17.24 93.98 17.72ZM87.98 14.44C87.98 14.16 87.78 13.44 87.42 13.44C86.02 13.44 85.22 15.56 85.1 16.64C85.26 16.68 85.42 16.72 85.58 16.72C86.66 16.72 87.98 15.52 87.98 14.44ZM107.359 17.84C107.359 17.96 107.359 18.08 107.319 18.16C106.679 20.24 105.039 23.24 102.479 23.24C100.959 23.24 99.6388 22.12 98.8788 20.88C97.8788 22.24 96.1188 23.92 94.2788 23.92C92.3187 23.92 91.6787 22.04 91.6787 20.4C91.6787 17.56 93.7988 11.76 97.2788 11.72C97.4788 11.72 97.6388 11.72 97.8388 11.76C98.0388 9.8 99.0388 3.52 101.639 3.52C103.359 3.52 103.599 6.12 103.599 7.36C103.599 10.92 101.919 15.24 100.399 18.4C100.679 19.36 101.399 21.12 102.599 21.12C104.879 21.12 105.159 16.92 106.519 16.92C107.039 16.92 107.359 17.36 107.359 17.84ZM101.639 7.6C101.639 7 101.599 6.4 101.479 5.84C100.239 7.84 99.7588 12 99.7588 14.32C99.7588 14.64 99.7988 14.92 99.7988 15.2C100.759 12.96 101.639 10.04 101.639 7.6ZM93.7588 19.96C93.7588 20.64 93.9188 21.84 94.7988 21.84C95.9588 21.84 97.5188 19.56 98.1188 18.64C97.7588 17.16 97.7188 15.76 97.7188 14.24V14.08C97.4788 13.92 97.3188 13.76 97.0388 13.76C95.4788 13.76 93.7588 18.4 93.7588 19.96ZM118.038 17.92C118.038 18 117.998 18.12 117.958 18.2C117.198 20.64 114.918 23.68 112.118 23.68C109.918 23.68 109.318 21.84 109.318 19.96C109.318 19.24 109.358 18.48 109.478 17.76C108.718 18.2 107.998 18.52 107.118 18.4C106.958 18.68 106.678 18.88 106.358 18.88C105.918 18.88 105.438 18.56 105.438 18.08C105.438 17.84 105.558 17.52 105.678 17.28C105.558 17.04 105.518 16.8 105.518 16.52C105.518 15.36 106.558 11.76 107.998 11.76C108.558 11.76 108.958 12.36 108.958 12.88C108.958 14.08 108.278 15.24 107.798 16.32C107.918 16.32 107.998 16.36 108.078 16.36C110.558 16.36 109.998 13.2 111.718 13.2C112.318 13.2 112.678 13.76 112.678 14.32C112.678 14.88 112.398 15.2 112.038 15.6C111.678 16.04 111.318 18.64 111.318 19.32C111.318 20.24 111.558 21.48 112.718 21.48C115.358 21.48 115.798 17.12 117.198 17.12C117.638 17.12 118.038 17.48 118.038 17.92ZM120.582 9.72C120.582 10.88 119.702 12.08 118.462 12.08C117.742 12.08 117.142 11.64 117.142 10.88C117.142 9.72 117.822 8.04 119.222 8.04C120.142 8.04 120.582 8.92 120.582 9.72ZM124.782 17.72C124.782 19.28 122.302 21.96 121.102 22.88C120.382 23.4 119.502 23.72 118.622 23.72C116.462 23.72 115.942 21.8 115.942 20C115.942 18.72 116.062 13.88 117.862 13.88C118.462 13.88 118.822 14.36 118.822 14.92C118.822 16.08 118.062 18.16 118.062 19.88C118.062 20.6 118.062 21.68 119.062 21.68C120.662 21.68 122.422 18.6 123.062 17.44C123.262 17.16 123.582 16.88 123.942 16.88C124.422 16.88 124.782 17.24 124.782 17.72ZM136.94 17.68C136.94 17.84 136.9 18 136.82 18.16C135.78 19.96 133.5 20.68 131.54 20.36C130.62 22.32 128.94 24.44 126.58 24.44C123.38 24.44 122.9 20.48 122.9 18.08C122.9 14.8 125.34 2.28 129.5 2.28C131.42 2.28 132.06 4.44 132.06 6C132.06 10.4 128.02 15.4 125.02 18.24C125.02 19.4 125.42 22.32 126.98 22.32C128.1 22.32 129.34 20.68 129.74 19.72C128.82 19.08 128.46 18 128.46 16.92C128.46 16.04 129.34 15.24 130.18 15.24C131.42 15.24 132.14 16.28 132.14 17.44C132.14 17.8 132.1 18.2 132.02 18.56C132.18 18.6 132.34 18.6 132.5 18.6C134.82 18.6 135.22 16.88 136.14 16.88C136.54 16.88 136.94 17.24 136.94 17.68ZM129.94 6.08C129.94 5.64 129.9 4.52 129.26 4.48C127.18 5.84 125.54 13.04 125.14 15.56C127.38 13.24 129.94 9.48 129.94 6.08Z" fill="#9748FF"/>
<path d="M18.72 22.96L18.9157 22.8044L18.7913 22.648L18.6113 22.7349L18.72 22.96ZM15.04 24.4L14.9723 24.1593L14.9703 24.1599L15.04 24.4ZM22.72 4.24L22.4894 4.3366L22.5232 4.41734L22.6 4.45934L22.72 4.24ZM20.84 21.6L20.6978 21.3944L20.4667 21.5542L20.6523 21.7652L20.84 21.6ZM10.44 20.48L10.1949 20.431L10.19 20.4552V20.48H10.44ZM10.48 20.28L10.2419 20.2038L10.2376 20.2172L10.2349 20.231L10.48 20.28ZM19.6 20.04L19.4006 20.1909L19.553 20.3922L19.7529 20.2378L19.6 20.04ZM22.84 7.04L22.987 6.83781L22.6761 6.61168L22.5955 6.98762L22.84 7.04ZM20.48 5.68L20.6234 5.47517L20.6204 5.47313L20.48 5.68ZM11.36 5.24L11.4391 5.47718L11.4413 5.47642L11.36 5.24ZM18.04 2.8L18.0163 3.04887L18.1297 2.56666L18.04 2.8ZM16.44 2.36L16.4046 2.60749L16.4046 2.60749L16.44 2.36ZM17.52 21.28L17.6356 21.5016L17.9021 21.3626L17.7169 21.1259L17.52 21.28ZM28.8 21.45C28.9703 21.45 29.1237 21.5339 29.2413 21.678C29.3607 21.8244 29.43 22.0189 29.43 22.2H29.93C29.93 21.9011 29.8193 21.5956 29.6287 21.362C29.4363 21.1261 29.1497 20.95 28.8 20.95V21.45ZM29.43 22.2C29.43 22.5025 29.2092 22.8896 28.7628 23.3255C28.3279 23.7503 27.7245 24.1771 27.0648 24.5586C26.4066 24.9393 25.7018 25.2695 25.0705 25.5037C24.4314 25.7409 23.8935 25.87 23.56 25.87V26.37C23.9865 26.37 24.5936 26.2141 25.2445 25.9725C25.9032 25.728 26.6334 25.3857 27.3152 24.9914C27.9955 24.5979 28.6371 24.1472 29.1122 23.6832C29.5758 23.2304 29.93 22.7175 29.93 22.2H29.43ZM23.56 25.87C21.5342 25.87 20.1632 24.3739 18.9157 22.8044L18.5243 23.1156C19.7568 24.6661 21.2658 26.37 23.56 26.37V25.87ZM18.6113 22.7349C17.4588 23.2912 16.2332 23.8047 14.9723 24.1593L15.1077 24.6407C16.4068 24.2753 17.6612 23.7488 18.8287 23.1851L18.6113 22.7349ZM14.9703 24.1599C13.7517 24.5137 12.4551 24.71 11.16 24.71V25.21C12.5049 25.21 13.8483 25.0063 15.1097 24.6401L14.9703 24.1599ZM11.16 24.71C5.21683 24.71 0.77 20.3007 0.77 14.36H0.27C0.27 20.5793 4.94317 25.21 11.16 25.21V24.71ZM0.77 14.36C0.77 6.86821 7.6877 0.449999 15.08 0.449999V-0.0500011C7.4323 -0.0500011 0.27 6.57178 0.27 14.36H0.77ZM15.08 0.449999C18.0079 0.449999 21.3093 1.51965 22.4894 4.3366L22.9506 4.1434C21.6507 1.04035 18.0721 -0.0500011 15.08 -0.0500011V0.449999ZM22.6 4.45934C25.0903 5.82118 26.59 8.02265 26.59 10.92H27.09C27.09 7.81735 25.4697 5.45882 22.84 4.02066L22.6 4.45934ZM26.59 10.92C26.59 12.8449 25.918 14.9119 24.8385 16.7799C23.7596 18.6472 22.2836 20.298 20.6978 21.3944L20.9822 21.8056C22.6364 20.662 24.1604 18.9528 25.2715 17.0301C26.382 15.1081 27.09 12.9551 27.09 10.92H26.59ZM20.6523 21.7652C20.8666 22.0086 21.0674 22.2726 21.2832 22.5456C21.4959 22.8148 21.7205 23.0893 21.9701 23.3336C22.4747 23.8276 23.0941 24.21 23.96 24.21V23.71C23.2659 23.71 22.7653 23.4124 22.3199 22.9764C22.0945 22.7557 21.8866 22.5027 21.6755 22.2356C21.4676 21.9724 21.2534 21.6914 21.0277 21.4348L20.6523 21.7652ZM23.96 24.21C24.5258 24.21 25.0722 24.019 25.5767 23.7492C26.0815 23.4792 26.5585 23.1224 26.9876 22.7741C27.4293 22.4155 27.7944 22.0885 28.1294 21.8288C28.2925 21.7024 28.4338 21.604 28.5545 21.5379C28.6796 21.4695 28.7576 21.45 28.8 21.45V20.95C28.6324 20.95 28.4654 21.0167 28.3146 21.0993C28.1594 21.1842 27.9937 21.3014 27.8231 21.4337C27.4906 21.6915 27.0807 22.0545 26.6724 22.3859C26.2515 22.7276 25.8035 23.0608 25.3408 23.3083C24.8778 23.556 24.4142 23.71 23.96 23.71V24.21ZM10.6851 20.529L10.7251 20.329L10.2349 20.231L10.1949 20.431L10.6851 20.529ZM10.7181 20.3562C11.3069 18.5161 13.1947 17.85 15.08 17.85V17.35C13.1253 17.35 10.9331 18.0439 10.2419 20.2038L10.7181 20.3562ZM15.08 17.85C16.8246 17.85 18.3165 18.7582 19.4006 20.1909L19.7994 19.8891C18.6435 18.3618 17.0154 17.35 15.08 17.35V17.85ZM19.7529 20.2378C22.4134 18.182 24.97 15.1174 24.97 11.44H24.47C24.47 14.8826 22.0666 17.818 19.4471 19.8422L19.7529 20.2378ZM24.97 11.44C24.97 9.84121 24.3991 7.86474 22.987 6.83781L22.693 7.24218C23.9209 8.13526 24.47 9.91878 24.47 11.44H24.97ZM22.5955 6.98762C22.5371 7.26027 22.444 7.58723 22.291 7.84083C22.1396 8.0916 21.9575 8.23 21.72 8.23V8.73C22.2025 8.73 22.5204 8.4284 22.719 8.09917C22.916 7.77277 23.0229 7.37973 23.0845 7.09238L22.5955 6.98762ZM21.72 8.23C21.5275 8.23 21.4172 8.17912 21.3477 8.11877C21.2745 8.05516 21.219 7.95692 21.1817 7.81603C21.1026 7.51745 21.13 7.15054 21.13 6.8H20.63C20.63 7.08946 20.5974 7.56255 20.6983 7.94397C20.751 8.14308 20.8455 8.34484 21.0198 8.49623C21.1978 8.65088 21.4325 8.73 21.72 8.73V8.23ZM21.13 6.8C21.13 6.37925 21.1436 5.83935 20.6234 5.47519L20.3366 5.88481C20.6164 6.08065 20.63 6.34074 20.63 6.8H21.13ZM20.6204 5.47313C20.0121 5.06035 19.0147 4.794 18.0367 4.6285C17.0479 4.46117 16.0339 4.39 15.36 4.39V4.89C16.0061 4.89 16.9921 4.95883 17.9533 5.12149C18.9253 5.286 19.8279 5.53964 20.3396 5.88687L20.6204 5.47313ZM15.36 4.39C13.9813 4.39 12.5922 4.55208 11.2787 5.00358L11.4413 5.47642C12.6878 5.04792 14.0187 4.89 15.36 4.89V4.39ZM11.2809 5.00283C11.1679 5.04052 11.0388 5.07 10.96 5.07V5.57C11.1212 5.57 11.3121 5.51948 11.4391 5.47717L11.2809 5.00283ZM10.96 5.07C10.7789 5.07 10.5844 5.00069 10.438 4.88128C10.2939 4.76373 10.21 4.61034 10.21 4.44H9.71C9.71 4.78966 9.88607 5.07627 10.122 5.26872C10.3556 5.45931 10.6611 5.57 10.96 5.57V5.07ZM10.21 4.44C10.21 4.19923 10.3816 3.96196 10.7868 3.7358C11.1841 3.51408 11.7402 3.34282 12.3513 3.21468C13.5696 2.95922 14.9315 2.89 15.48 2.89V2.39C14.9085 2.39 13.5104 2.46078 12.2487 2.72532C11.6198 2.85718 11.0059 3.04092 10.5432 3.2992C10.0884 3.55304 9.71 3.92077 9.71 4.44H10.21ZM15.48 2.89C16.3064 2.89 17.1751 2.96876 18.0163 3.04887L18.0637 2.55112C17.2249 2.47124 16.3336 2.39 15.48 2.39V2.89ZM18.1297 2.56666C17.5995 2.36272 17.0604 2.19608 16.4754 2.11251L16.4046 2.60749C16.9396 2.68391 17.4405 2.83728 17.9503 3.03334L18.1297 2.56666ZM16.4754 2.11251C15.9038 2.03085 15.3319 1.99 14.76 1.99V2.49C15.3081 2.49 15.8562 2.52914 16.4046 2.60749L16.4754 2.11251ZM14.76 1.99C8.17723 1.99 2.39 7.98667 2.39 14.52H2.89C2.89 8.25333 8.46277 2.49 14.76 2.49V1.99ZM2.39 14.52C2.39 19.6387 6.64353 23.21 11.56 23.21V22.71C6.87647 22.71 2.89 19.3213 2.89 14.52H2.39ZM11.56 23.21C13.6959 23.21 15.7771 22.4713 17.6356 21.5016L17.4044 21.0584C15.5829 22.0087 13.5841 22.71 11.56 22.71V23.21ZM17.7169 21.1259C16.9597 20.1584 15.652 19.39 14.4 19.39V19.89C15.468 19.89 16.6403 20.5616 17.3231 21.4341L17.7169 21.1259ZM14.4 19.39C13.869 19.39 13.4637 19.5127 13.1405 19.707C12.8206 19.8994 12.5967 20.153 12.4166 20.3879C12.2248 20.6381 12.1066 20.8289 11.9547 20.9836C11.8199 21.121 11.6929 21.19 11.52 21.19V21.69C11.8671 21.69 12.1151 21.534 12.3115 21.3339C12.4909 21.1511 12.6602 20.8919 12.8134 20.6921C12.9783 20.477 13.1569 20.2806 13.3982 20.1355C13.6363 19.9923 13.951 19.89 14.4 19.89V19.39ZM11.52 21.19C11.0584 21.19 10.69 20.8654 10.69 20.48H10.19C10.19 21.2146 10.8616 21.69 11.52 21.69V21.19ZM45.5491 18.44L45.3411 18.3013L45.3294 18.3188L45.3208 18.338L45.5491 18.44ZM36.4691 21.36L36.6912 21.2453L36.5424 20.9569L36.3015 21.1745L36.4691 21.36ZM30.4691 14.36L30.2607 14.2211L30.2536 14.2332L30.4691 14.36ZM35.9091 19.2L36.1091 19.35L36.1564 19.2869L36.1589 19.2081L35.9091 19.2ZM38.1091 19.12L37.8683 19.0526L37.8533 19.1062L37.8625 19.1611L38.1091 19.12ZM45.4191 18C45.4191 18.1229 45.3876 18.2315 45.3411 18.3013L45.7571 18.5787C45.8705 18.4085 45.9191 18.1971 45.9191 18H45.4191ZM45.3208 18.338C44.9146 19.2471 44.0732 20.4923 43.0573 21.5082C42.0309 22.5346 40.8834 23.27 39.8691 23.27V23.77C41.0948 23.77 42.3672 22.9054 43.4108 21.8618C44.4649 20.8077 45.3435 19.5129 45.7773 18.542L45.3208 18.338ZM39.8691 23.27C38.573 23.27 37.2933 22.4118 36.6912 21.2453L36.2469 21.4747C36.9248 22.7882 38.3652 23.77 39.8691 23.77V23.27ZM36.3015 21.1745C35.6804 21.7354 34.9645 22.3721 34.1891 22.8696C33.4123 23.3679 32.6004 23.71 31.7891 23.71V24.21C32.7377 24.21 33.6458 23.8121 34.4591 23.2904C35.2736 22.7679 36.0177 22.1046 36.6366 21.5455L36.3015 21.1745ZM31.7891 23.71C30.7816 23.71 30.1403 23.2601 29.7379 22.5955C29.3259 21.915 29.1591 20.9967 29.1591 20.08H28.6591C28.6591 21.0433 28.8322 22.065 29.3102 22.8545C29.7978 23.6599 30.5966 24.21 31.7891 24.21V23.71ZM29.1591 20.08C29.1591 19.3317 29.3429 18.2659 29.6303 17.2107C29.9176 16.1555 30.3006 15.1395 30.6845 14.4868L30.2536 14.2332C29.8375 14.9405 29.4405 16.0045 29.1478 17.0793C28.8552 18.1541 28.6591 19.2683 28.6591 20.08H29.1591ZM30.6771 14.4987C30.8712 14.2074 31.2336 14.01 31.5891 14.01V13.51C31.0645 13.51 30.5469 13.7926 30.2611 14.2213L30.6771 14.4987ZM31.5891 14.01C32.051 14.01 32.3791 14.3381 32.3791 14.8H32.8791C32.8791 14.0619 32.3271 13.51 31.5891 13.51V14.01ZM32.3791 14.8C32.3791 15.0028 32.2971 15.2607 32.1448 15.5993C31.9912 15.9409 31.7968 16.3023 31.5836 16.7469C31.1685 17.6125 30.7391 18.6834 30.7391 19.96H31.2391C31.2391 18.7966 31.6296 17.8075 32.0345 16.9631C32.2313 16.5527 32.4469 16.1466 32.6008 15.8044C32.756 15.4593 32.8791 15.1172 32.8791 14.8H32.3791ZM30.7391 19.96C30.7391 20.359 30.8011 20.8887 31.0016 21.3287C31.2051 21.7753 31.5757 22.17 32.1891 22.17V21.67C31.8424 21.67 31.613 21.4647 31.4566 21.1213C31.297 20.7713 31.2391 20.321 31.2391 19.96H30.7391ZM32.1891 22.17C32.9436 22.17 33.7532 21.6769 34.4337 21.1124C35.1265 20.5376 35.7396 19.8426 36.1091 19.35L35.7091 19.05C35.3585 19.5174 34.7716 20.1824 34.1144 20.7276C33.4449 21.2831 32.7545 21.67 32.1891 21.67V22.17ZM36.1589 19.2081C36.1782 18.6122 36.3538 17.4179 36.7245 16.379C36.91 15.8592 37.1383 15.3956 37.4076 15.0664C37.6763 14.738 37.9621 14.57 38.2691 14.57V14.07C37.7561 14.07 37.3419 14.357 37.0206 14.7498C36.6998 15.1419 36.4481 15.6658 36.2536 16.211C35.8643 17.3021 35.68 18.5478 35.6592 19.1919L36.1589 19.2081ZM38.2691 14.57C38.552 14.57 38.7598 14.7063 38.9066 14.9245C39.0585 15.1503 39.1391 15.459 39.1391 15.76H39.6391C39.6391 15.381 39.5397 14.9697 39.3215 14.6455C39.0983 14.3137 38.7461 14.07 38.2691 14.07V14.57ZM39.1391 15.76C39.1391 16.4603 38.9104 17.0072 38.6343 17.5157C38.565 17.6436 38.4931 17.768 38.4208 17.8929C38.349 18.0169 38.2762 18.1421 38.2079 18.2668C38.0715 18.516 37.9459 18.7754 37.8683 19.0526L38.3498 19.1874C38.4122 18.9646 38.5166 18.744 38.6465 18.5069C38.7113 18.3886 38.7807 18.2691 38.8534 18.1435C38.9256 18.0189 39.0007 17.8889 39.0738 17.7543C39.3677 17.2128 39.6391 16.5797 39.6391 15.76H39.1391ZM37.8625 19.1611C37.9458 19.6612 38.1246 20.2592 38.4464 20.7392C38.7717 21.2244 39.2604 21.61 39.9491 21.61V21.11C39.4777 21.11 39.1264 20.8556 38.8617 20.4608C38.5935 20.0608 38.4323 19.5388 38.3557 19.0789L37.8625 19.1611ZM39.9491 21.61C40.6548 21.61 41.2447 21.3142 41.7441 20.8953C42.24 20.4793 42.6592 19.9314 43.0289 19.4034C43.4071 18.863 43.7239 18.3591 44.0401 17.9752C44.196 17.7861 44.3401 17.6411 44.4766 17.5446C44.6117 17.449 44.7265 17.41 44.8291 17.41V16.91C44.5917 16.91 44.3776 17.0022 44.1879 17.1363C43.9996 17.2695 43.8228 17.4527 43.6542 17.6573C43.3217 18.0609 42.976 18.607 42.6193 19.1166C42.2539 19.6386 41.8656 20.1407 41.4228 20.5122C40.9834 20.8808 40.5033 21.11 39.9491 21.11V21.61ZM44.8291 17.41C45.131 17.41 45.4191 17.6981 45.4191 18H45.9191C45.9191 17.4219 45.4071 16.91 44.8291 16.91V17.41ZM48.7584 22.88L48.9049 23.0828L48.9105 23.0784L48.7584 22.88ZM50.7184 17.44L50.515 17.2947L50.5066 17.3065L50.4995 17.3192L50.7184 17.44ZM47.9884 9.72C47.9884 10.7837 47.182 11.83 46.1184 11.83V12.33C47.5349 12.33 48.4884 10.9763 48.4884 9.72H47.9884ZM46.1184 11.83C45.8076 11.83 45.5382 11.735 45.3508 11.5749C45.1676 11.4184 45.0484 11.1885 45.0484 10.88H44.5484C44.5484 11.3315 44.7292 11.7016 45.0261 11.9551C45.3186 12.205 45.7093 12.33 46.1184 12.33V11.83ZM45.0484 10.88C45.0484 10.3413 45.2081 9.67726 45.5268 9.15529C45.8438 8.63609 46.2945 8.29 46.8784 8.29V7.79C46.0624 7.79 45.473 8.2839 45.1001 8.89471C44.7288 9.50274 44.5484 10.2587 44.5484 10.88H45.0484ZM46.8784 8.29C47.2464 8.29 47.5143 8.4612 47.6989 8.72379C47.8888 8.9939 47.9884 9.36105 47.9884 9.72H48.4884C48.4884 9.27895 48.368 8.8061 48.1079 8.43621C47.8426 8.05879 47.4304 7.79 46.8784 7.79V8.29ZM52.1884 17.72C52.1884 18.0509 52.0545 18.4685 51.8102 18.94C51.5685 19.4066 51.2309 19.9032 50.8519 20.3855C50.0925 21.352 49.187 22.2364 48.6063 22.6816L48.9105 23.0784C49.5299 22.6036 50.4644 21.688 51.245 20.6945C51.636 20.1968 51.9934 19.6734 52.2542 19.17C52.5124 18.6715 52.6884 18.1691 52.6884 17.72H52.1884ZM48.6121 22.6773C47.9289 23.1707 47.0992 23.47 46.2784 23.47V23.97C47.2177 23.97 48.148 23.6293 48.9048 23.0827L48.6121 22.6773ZM46.2784 23.47C45.2907 23.47 44.7026 23.0404 44.3459 22.4116C43.9775 21.7624 43.8484 20.884 43.8484 20H43.3484C43.3484 20.916 43.4794 21.8976 43.911 22.6584C44.3543 23.4396 45.1061 23.97 46.2784 23.97V23.47ZM43.8484 20C43.8484 19.3637 43.8786 17.8524 44.1292 16.5057C44.255 15.8301 44.4327 15.2165 44.6774 14.7781C44.9234 14.3373 45.2018 14.13 45.5184 14.13V13.63C44.935 13.63 44.5235 14.0277 44.2408 14.5344C43.9567 15.0435 43.7669 15.7199 43.6377 16.4143C43.3783 17.8076 43.3484 19.3563 43.3484 20H43.8484ZM45.5184 14.13C45.9484 14.13 46.2284 14.4638 46.2284 14.92H46.7284C46.7284 14.2562 46.2885 13.63 45.5184 13.63V14.13ZM46.2284 14.92C46.2284 15.4658 46.0477 16.2405 45.8541 17.1372C45.6646 18.0148 45.4684 18.9896 45.4684 19.88H45.9684C45.9684 19.0504 46.1523 18.1252 46.3428 17.2428C46.5292 16.3795 46.7284 15.5342 46.7284 14.92H46.2284ZM45.4684 19.88C45.4684 20.2294 45.4658 20.7246 45.6073 21.132C45.6799 21.3411 45.7958 21.5445 45.9841 21.6952C46.1757 21.8484 46.4207 21.93 46.7184 21.93V21.43C46.5162 21.43 46.3862 21.3766 46.2965 21.3048C46.2036 21.2305 46.132 21.1189 46.0796 20.968C45.9711 20.6554 45.9684 20.2506 45.9684 19.88H45.4684ZM46.7184 21.93C47.1973 21.93 47.6607 21.7011 48.0806 21.379C48.5036 21.0544 48.9083 20.6155 49.2749 20.1496C50.0084 19.2174 50.6167 18.142 50.9373 17.5608L50.4995 17.3192C50.1802 17.898 49.5884 18.9426 48.882 19.8404C48.5285 20.2895 48.1532 20.6931 47.7763 20.9823C47.3962 21.2739 47.0396 21.43 46.7184 21.43V21.93ZM50.9219 17.5853C51.1082 17.3244 51.3631 17.13 51.5984 17.13V16.63C51.1137 16.63 50.7286 16.9956 50.515 17.2947L50.9219 17.5853ZM51.5984 17.13C51.9404 17.13 52.1884 17.3781 52.1884 17.72H52.6884C52.6884 17.1019 52.2165 16.63 51.5984 16.63V17.13ZM64.4763 18.16L64.6927 18.2851L64.6965 18.2785L64.6999 18.2718L64.4763 18.16ZM59.1963 20.36L59.2365 20.1133L59.0502 20.0828L58.9699 20.2538L59.1963 20.36ZM52.6763 18.24L52.5044 18.0584L52.4263 18.1324V18.24H52.6763ZM57.3963 19.72L57.627 19.8162L57.7046 19.63L57.539 19.5148L57.3963 19.72ZM59.6763 18.56L59.4322 18.5058L59.3794 18.7435L59.6156 18.8025L59.6763 18.56ZM56.9163 4.48L56.9318 4.23049L56.849 4.2253L56.7794 4.27076L56.9163 4.48ZM52.7963 15.56L52.5493 15.5208L52.4249 16.3045L52.9761 15.7336L52.7963 15.56ZM64.3463 17.68C64.3463 17.7968 64.3174 17.9188 64.2526 18.0482L64.6999 18.2718C64.7951 18.0812 64.8463 17.8832 64.8463 17.68H64.3463ZM64.2598 18.0349C63.2859 19.7204 61.1251 20.4216 59.2365 20.1133L59.156 20.6067C61.1874 20.9384 63.5866 20.1996 64.6927 18.2851L64.2598 18.0349ZM58.9699 20.2538C58.5187 21.215 57.8854 22.2055 57.0856 22.9523C56.2875 23.6975 55.3356 24.19 54.2363 24.19V24.69C55.4969 24.69 56.565 24.1225 57.4269 23.3177C58.2871 22.5145 58.9538 21.465 59.4226 20.4662L58.9699 20.2538ZM54.2363 24.19C53.4925 24.19 52.9192 23.9616 52.4704 23.591C52.0173 23.2168 51.6781 22.6866 51.4281 22.0665C50.9264 20.8218 50.8062 19.2707 50.8062 18.08H50.3062C50.3062 19.2893 50.4261 20.9182 50.9644 22.2535C51.2344 22.9234 51.6152 23.5332 52.1521 23.9765C52.6933 24.4234 53.38 24.69 54.2363 24.69V24.19ZM50.8062 18.08C50.8062 16.4731 51.4097 12.5495 52.5344 9.02602C53.0964 7.26531 53.783 5.62289 54.5782 4.42583C55.3817 3.21632 56.249 2.53 57.1563 2.53V2.03C55.9835 2.03 54.9858 2.90867 54.1618 4.14917C53.3295 5.4021 52.6261 7.09468 52.0581 8.87398C50.9228 12.4305 50.3062 16.4069 50.3062 18.08H50.8062ZM57.1563 2.53C58.0005 2.53 58.5675 2.99619 58.9367 3.6745C59.3108 4.36195 59.4663 5.2473 59.4663 6H59.9663C59.9663 5.19269 59.8017 4.21805 59.3758 3.4355C58.945 2.64381 58.232 2.03 57.1563 2.03V2.53ZM59.4663 6C59.4663 8.12961 58.4857 10.4308 57.1109 12.5698C55.7394 14.7039 53.9937 16.6486 52.5044 18.0584L52.8481 18.4216C54.3588 16.9914 56.1331 15.0161 57.5316 12.8402C58.9268 10.6692 59.9663 8.27039 59.9663 6H59.4663ZM52.4263 18.24C52.4263 18.8393 52.5285 19.8876 52.8344 20.7949C52.9872 21.2482 53.1967 21.6841 53.4842 22.0108C53.7761 22.3424 54.1575 22.57 54.6363 22.57V22.07C54.335 22.07 54.0814 21.9326 53.8595 21.6805C53.6333 21.4234 53.4503 21.0568 53.3081 20.6351C53.024 19.7924 52.9263 18.8007 52.9263 18.24H52.4263ZM54.6363 22.57C55.3063 22.57 55.9597 22.0905 56.4681 21.5516C56.9873 21.0012 57.4146 20.326 57.627 19.8162L57.1655 19.6238C56.9779 20.074 56.5852 20.6988 56.1044 21.2084C55.6128 21.7295 55.0862 22.07 54.6363 22.07V22.57ZM57.539 19.5148C56.7094 18.9376 56.3663 17.9512 56.3663 16.92H55.8663C55.8663 18.0488 56.2431 19.2224 57.2535 19.9252L57.539 19.5148ZM56.3663 16.92C56.3663 16.5635 56.5461 16.2053 56.8338 15.9309C57.122 15.656 57.4927 15.49 57.8363 15.49V14.99C57.3398 14.99 56.8505 15.224 56.4887 15.5691C56.1264 15.9147 55.8663 16.3965 55.8663 16.92H56.3663ZM57.8363 15.49C58.8959 15.49 59.5463 16.3716 59.5463 17.44H60.0463C60.0463 16.1884 59.2566 14.99 57.8363 14.99V15.49ZM59.5463 17.44C59.5463 17.7833 59.5079 18.165 59.4322 18.5058L59.9203 18.6142C60.0046 18.235 60.0463 17.8167 60.0463 17.44H59.5463ZM59.6156 18.8025C59.8102 18.8512 60.0009 18.85 60.1563 18.85V18.35C59.9916 18.35 59.8623 18.3488 59.7369 18.3175L59.6156 18.8025ZM60.1563 18.85C61.3923 18.85 62.1277 18.3865 62.6633 17.9303C62.7943 17.8189 62.9137 17.7075 63.0216 17.6079C63.1313 17.5065 63.2278 17.4186 63.3211 17.3446C63.5084 17.1959 63.6506 17.13 63.7963 17.13V16.63C63.4819 16.63 63.2291 16.7791 63.0102 16.9529C62.9003 17.0402 62.7909 17.1404 62.6824 17.2405C62.5719 17.3425 62.4607 17.4461 62.3392 17.5497C61.8648 17.9535 61.2402 18.35 60.1563 18.35V18.85ZM63.7963 17.13C64.0662 17.13 64.3463 17.386 64.3463 17.68H64.8463C64.8463 17.094 64.3263 16.63 63.7963 16.63V17.13ZM57.8463 6.08C57.8463 5.85727 57.8368 5.43951 57.7379 5.06603C57.6886 4.87951 57.6121 4.6847 57.4879 4.52908C57.3585 4.3669 57.1747 4.24566 56.9318 4.23049L56.9007 4.72951C56.9778 4.73433 57.039 4.7681 57.0971 4.84092C57.1604 4.92029 57.2139 5.04049 57.2546 5.19397C57.3357 5.50049 57.3463 5.86273 57.3463 6.08H57.8463ZM56.7794 4.27076C56.2003 4.64944 55.6832 5.40699 55.2276 6.31888C54.7669 7.24093 54.3498 8.36094 53.9878 9.50987C53.2637 11.808 52.751 14.2502 52.5493 15.5208L53.0432 15.5992C53.2415 14.3498 53.7488 11.932 54.4647 9.66013C54.8227 8.52405 55.2306 7.43157 55.6749 6.54237C56.1243 5.64301 56.5922 4.99056 57.0531 4.68924L56.7794 4.27076ZM52.9761 15.7336C54.1085 14.5608 55.3224 13.0236 56.2548 11.3465C57.1855 9.67207 57.8463 7.83902 57.8463 6.08H57.3463C57.3463 7.72097 56.727 9.46793 55.8177 11.1035C54.9101 12.7364 53.724 14.2392 52.6164 15.3864L52.9761 15.7336ZM76.6638 18.16L76.8802 18.2851L76.884 18.2785L76.8874 18.2718L76.6638 18.16ZM71.3838 20.36L71.424 20.1133L71.2377 20.0828L71.1574 20.2538L71.3838 20.36ZM64.8638 18.24L64.6919 18.0584L64.6138 18.1324V18.24H64.8638ZM69.5838 19.72L69.8145 19.8162L69.8921 19.63L69.7265 19.5148L69.5838 19.72ZM71.8638 18.56L71.6197 18.5058L71.5669 18.7435L71.8031 18.8025L71.8638 18.56ZM69.1038 4.48L69.1193 4.23049L69.0365 4.2253L68.9669 4.27076L69.1038 4.48ZM64.9838 15.56L64.7368 15.5208L64.6124 16.3045L65.1636 15.7336L64.9838 15.56ZM76.5338 17.68C76.5338 17.7968 76.5049 17.9188 76.4401 18.0482L76.8874 18.2718C76.9826 18.0812 77.0338 17.8832 77.0338 17.68H76.5338ZM76.4473 18.0349C75.4734 19.7204 73.3126 20.4216 71.424 20.1133L71.3435 20.6067C73.3749 20.9384 75.7741 20.1996 76.8802 18.2851L76.4473 18.0349ZM71.1574 20.2538C70.7062 21.215 70.0729 22.2055 69.2731 22.9523C68.475 23.6975 67.5231 24.19 66.4238 24.19V24.69C67.6844 24.69 68.7525 24.1225 69.6144 23.3177C70.4746 22.5145 71.1413 21.465 71.6101 20.4662L71.1574 20.2538ZM66.4238 24.19C65.68 24.19 65.1067 23.9616 64.6579 23.591C64.2048 23.2168 63.8656 22.6866 63.6156 22.0665C63.1139 20.8218 62.9937 19.2707 62.9937 18.08H62.4937C62.4937 19.2893 62.6136 20.9182 63.1519 22.2535C63.4219 22.9234 63.8027 23.5332 64.3396 23.9765C64.8808 24.4234 65.5675 24.69 66.4238 24.69V24.19ZM62.9937 18.08C62.9937 16.4731 63.5972 12.5495 64.7219 9.02602C65.2839 7.26531 65.9705 5.62289 66.7657 4.42583C67.5692 3.21632 68.4365 2.53 69.3438 2.53V2.03C68.171 2.03 67.1733 2.90867 66.3493 4.14917C65.517 5.4021 64.8136 7.09468 64.2456 8.87398C63.1103 12.4305 62.4937 16.4069 62.4937 18.08H62.9937ZM69.3438 2.53C70.188 2.53 70.755 2.99619 71.1242 3.6745C71.4983 4.36195 71.6538 5.2473 71.6538 6H72.1538C72.1538 5.19269 71.9892 4.21805 71.5633 3.4355C71.1325 2.64381 70.4195 2.03 69.3438 2.03V2.53ZM71.6538 6C71.6538 8.12961 70.6732 10.4308 69.2984 12.5698C67.9269 14.7039 66.1812 16.6486 64.6919 18.0584L65.0356 18.4216C66.5463 16.9914 68.3206 15.0161 69.7191 12.8402C71.1143 10.6692 72.1538 8.27039 72.1538 6H71.6538ZM64.6138 18.24C64.6138 18.8393 64.716 19.8876 65.0219 20.7949C65.1747 21.2482 65.3842 21.6841 65.6717 22.0108C65.9636 22.3424 66.345 22.57 66.8238 22.57V22.07C66.5225 22.07 66.2689 21.9326 66.047 21.6805C65.8208 21.4234 65.6378 21.0568 65.4956 20.6351C65.2115 19.7924 65.1138 18.8007 65.1138 18.24H64.6138ZM66.8238 22.57C67.4938 22.57 68.1472 22.0905 68.6556 21.5516C69.1748 21.0012 69.6021 20.326 69.8145 19.8162L69.353 19.6238C69.1654 20.074 68.7727 20.6988 68.2919 21.2084C67.8003 21.7295 67.2737 22.07 66.8238 22.07V22.57ZM69.7265 19.5148C68.8969 18.9376 68.5538 17.9512 68.5538 16.92H68.0538C68.0538 18.0488 68.4306 19.2224 69.441 19.9252L69.7265 19.5148ZM68.5538 16.92C68.5538 16.5635 68.7336 16.2053 69.0213 15.9309C69.3095 15.656 69.6802 15.49 70.0238 15.49V14.99C69.5273 14.99 69.038 15.224 68.6762 15.5691C68.3139 15.9147 68.0538 16.3965 68.0538 16.92H68.5538ZM70.0238 15.49C71.0834 15.49 71.7338 16.3716 71.7338 17.44H72.2338C72.2338 16.1884 71.4441 14.99 70.0238 14.99V15.49ZM71.7338 17.44C71.7338 17.7833 71.6954 18.165 71.6197 18.5058L72.1078 18.6142C72.1921 18.235 72.2338 17.8167 72.2338 17.44H71.7338ZM71.8031 18.8025C71.9977 18.8512 72.1884 18.85 72.3438 18.85V18.35C72.1791 18.35 72.0498 18.3488 71.9244 18.3175L71.8031 18.8025ZM72.3438 18.85C73.5798 18.85 74.3152 18.3865 74.8508 17.9303C74.9818 17.8189 75.1012 17.7075 75.2091 17.6079C75.3188 17.5065 75.4153 17.4186 75.5086 17.3446C75.6959 17.1959 75.8381 17.13 75.9838 17.13V16.63C75.6694 16.63 75.4166 16.7791 75.1977 16.9529C75.0878 17.0402 74.9784 17.1404 74.8699 17.2405C74.7594 17.3425 74.6482 17.4461 74.5267 17.5497C74.0523 17.9535 73.4277 18.35 72.3438 18.35V18.85ZM75.9838 17.13C76.2537 17.13 76.5338 17.386 76.5338 17.68H77.0338C77.0338 17.094 76.5138 16.63 75.9838 16.63V17.13ZM70.0338 6.08C70.0338 5.85727 70.0243 5.43951 69.9254 5.06603C69.8761 4.87951 69.7996 4.6847 69.6754 4.52908C69.546 4.3669 69.3622 4.24566 69.1193 4.23049L69.0882 4.72951C69.1653 4.73433 69.2265 4.7681 69.2846 4.84092C69.3479 4.92029 69.4014 5.04049 69.4421 5.19397C69.5232 5.50049 69.5338 5.86273 69.5338 6.08H70.0338ZM68.9669 4.27076C68.3878 4.64944 67.8707 5.40699 67.4151 6.31888C66.9544 7.24093 66.5373 8.36094 66.1753 9.50987C65.4512 11.808 64.9385 14.2502 64.7368 15.5208L65.2307 15.5992C65.429 14.3498 65.9363 11.932 66.6522 9.66013C67.0102 8.52405 67.4181 7.43157 67.8624 6.54237C68.3118 5.64301 68.7797 4.99056 69.2406 4.68924L68.9669 4.27076ZM65.1636 15.7336C66.296 14.5608 67.5099 13.0236 68.4423 11.3465C69.373 9.67207 70.0338 7.83902 70.0338 6.08H69.5338C69.5338 7.72097 68.9145 9.46793 68.0052 11.1035C67.0976 12.7364 65.9115 14.2392 64.8039 15.3864L65.1636 15.7336ZM77.1713 17.76L76.9746 17.6057L76.9029 17.697L76.9264 17.8107L77.1713 17.76ZM80.1313 4.6L80.308 4.42322L80.1988 4.31397L80.0522 4.36283L80.1313 4.6ZM79.7713 4.8L79.6326 4.59199L79.6164 4.60275L79.6021 4.61587L79.7713 4.8ZM77.0513 14.64L76.8014 14.6319L76.7717 15.5533L77.2628 14.7732L77.0513 14.64ZM84.3613 18C84.3613 19.0966 83.7214 20.4495 82.7406 21.5376C81.7594 22.6262 80.4916 23.39 79.2913 23.39V23.89C80.6909 23.89 82.0831 23.0138 83.1119 21.8724C84.1411 20.7305 84.8613 19.2634 84.8613 18H84.3613ZM79.2913 23.39C77.6286 23.39 76.6088 22.3497 75.991 20.9113C75.3701 19.466 75.1812 17.6647 75.1812 16.28H74.6812C74.6812 17.6953 74.8724 19.574 75.5315 21.1087C76.1937 22.6503 77.3539 23.89 79.2913 23.89V23.39ZM75.1812 16.28C75.1812 14.8442 75.5578 11.4066 76.4072 8.33157C76.8321 6.79357 77.3705 5.36457 78.0281 4.32558C78.6914 3.2777 79.4335 2.69 80.2513 2.69V2.19C79.169 2.19 78.2961 2.9673 77.6056 4.05817C76.9095 5.15792 76.3554 6.64143 75.9253 8.19843C75.0647 11.3134 74.6812 14.7958 74.6812 16.28H75.1812ZM80.2513 2.69C80.9015 2.69 81.3697 3.04298 81.6872 3.56917C82.0089 4.10225 82.1613 4.79526 82.1613 5.4H82.6613C82.6613 4.72474 82.4936 3.93775 82.1153 3.31083C81.7328 2.67702 81.121 2.19 80.2513 2.19V2.69ZM82.1613 5.4C82.1613 7.36916 81.4868 9.63158 80.4938 11.8062C79.5025 13.9773 78.203 16.0404 76.9746 17.6057L77.3679 17.9143C78.6195 16.3196 79.94 14.2227 80.9487 12.0138C81.9557 9.80841 82.6613 7.47084 82.6613 5.4H82.1613ZM76.9264 17.8107C77.0474 18.3953 77.2825 19.3713 77.6974 20.2062C78.1033 21.0231 78.7357 21.81 79.6913 21.81V21.31C79.0468 21.31 78.5392 20.7769 78.1451 19.9838C77.76 19.2087 77.5351 18.2847 77.4161 17.7093L76.9264 17.8107ZM79.6913 21.81C80.3804 21.81 80.9147 21.4847 81.3389 21.0307C81.7579 20.5823 82.0838 19.9939 82.3649 19.4318C82.6534 18.8547 82.8891 18.3191 83.1433 17.9125C83.4065 17.4913 83.6186 17.33 83.8113 17.33V16.83C83.3239 16.83 82.981 17.2287 82.7193 17.6475C82.4484 18.0809 82.1891 18.6653 81.9176 19.2082C81.6387 19.7661 81.3396 20.2977 80.9736 20.6893C80.6128 21.0753 80.2021 21.31 79.6913 21.31V21.81ZM83.8113 17.33C84.0255 17.33 84.1486 17.4029 84.2249 17.4997C84.3085 17.6058 84.3613 17.7738 84.3613 18H84.8613C84.8613 17.7062 84.794 17.4142 84.6176 17.1903C84.4339 16.9571 84.157 16.83 83.8113 16.83V17.33ZM80.7413 5.8C80.7413 5.35909 80.7067 4.82187 80.308 4.42322L79.9545 4.77678C80.1958 5.01813 80.2413 5.36091 80.2413 5.8H80.7413ZM80.0522 4.36283C79.8942 4.41551 79.745 4.51703 79.6326 4.59199L79.9099 5.00801C80.0375 4.92296 80.1283 4.86449 80.2103 4.83717L80.0522 4.36283ZM79.6021 4.61587C79.074 5.10091 78.6469 5.82358 78.3 6.65153C77.9518 7.48295 77.6766 8.43969 77.4621 9.4111C77.0333 11.3536 76.8418 13.3792 76.8014 14.6319L77.3011 14.6481C77.3407 13.4208 77.5292 11.4264 77.9504 9.5189C78.1609 8.56531 78.4283 7.63955 78.7612 6.84472C79.0956 6.04642 79.4885 5.39909 79.9404 4.98413L79.6021 4.61587ZM77.2628 14.7732C77.9488 13.6837 78.8153 12.112 79.5111 10.4832C80.2038 8.86195 80.7413 7.15303 80.7413 5.8H80.2413C80.2413 7.04697 79.7387 8.67805 79.0514 10.2868C78.3672 11.888 77.5137 13.4363 76.8397 14.5068L77.2628 14.7732ZM93.86 18.16L93.652 18.0213L93.6429 18.035L93.6356 18.0498L93.86 18.16ZM85.18 18.8L85.1715 18.5501L84.8674 18.5605L84.9365 18.8568L85.18 18.8ZM92.42 17.28L92.22 17.13L92.22 17.13L92.42 17.28ZM85.1 16.64L84.8515 16.6124L84.8274 16.8295L85.0394 16.8825L85.1 16.64ZM93.73 17.72C93.73 17.8429 93.6985 17.9515 93.652 18.0213L94.068 18.2987C94.1815 18.1285 94.23 17.9171 94.23 17.72H93.73ZM93.6356 18.0498C93.0943 19.1518 92.1406 20.3025 90.9981 21.1764C89.8538 22.0518 88.5461 22.63 87.3 22.63V23.13C88.6939 23.13 90.1062 22.4882 91.3019 21.5736C92.4994 20.6575 93.5057 19.4482 94.0844 18.2702L93.6356 18.0498ZM87.3 22.63C84.7248 22.63 83.19 20.3938 83.19 17.92H82.69C82.69 20.5662 84.3552 23.13 87.3 23.13V22.63ZM83.19 17.92C83.19 16.649 83.6256 15.1066 84.4242 13.8869C85.2227 12.6673 86.3549 11.81 87.74 11.81V11.31C86.1251 11.31 84.8573 12.3127 84.0058 13.6131C83.1544 14.9134 82.69 16.551 82.69 17.92H83.19ZM87.74 11.81C88.3733 11.81 88.8526 12.0428 89.1766 12.4143C89.5041 12.7899 89.69 13.3274 89.69 13.96H90.19C90.19 13.2326 89.9759 12.5701 89.5534 12.0857C89.1274 11.5972 88.5067 11.31 87.74 11.31V11.81ZM89.69 13.96C89.69 15.0782 89.1285 16.2081 88.2677 17.0737C87.4069 17.9394 86.2742 18.5128 85.1715 18.5501L85.1885 19.0499C86.4458 19.0072 87.6931 18.3606 88.6223 17.4263C89.5515 16.4919 90.19 15.2418 90.19 13.96H89.69ZM84.9365 18.8568C85.0864 19.4992 85.3902 20.0398 85.8381 20.4205C86.2875 20.8025 86.8665 21.01 87.54 21.01V20.51C86.9735 20.51 86.5125 20.3375 86.1619 20.0395C85.8098 19.7402 85.5536 19.3008 85.4235 18.7432L84.9365 18.8568ZM87.54 21.01C88.7369 21.01 89.7122 20.5057 90.5317 19.8107C91.3465 19.1196 92.0224 18.2269 92.62 17.43L92.22 17.13C91.6176 17.9331 90.9735 18.7804 90.2083 19.4293C89.4478 20.0743 88.5831 20.51 87.54 20.51V21.01ZM92.62 17.43C92.7509 17.2555 92.804 17.1863 92.8634 17.1448C92.9037 17.1165 92.9645 17.09 93.14 17.09V16.59C92.9155 16.59 92.7363 16.6235 92.5766 16.7352C92.436 16.8337 92.3291 16.9845 92.22 17.13L92.62 17.43ZM93.14 17.09C93.467 17.09 93.73 17.3626 93.73 17.72H94.23C94.23 17.1174 93.773 16.59 93.14 16.59V17.09ZM88.23 14.44C88.23 14.2599 88.1704 13.9755 88.0637 13.734C88.0096 13.6117 87.9365 13.4841 87.8393 13.3833C87.7411 13.2816 87.6003 13.19 87.42 13.19V13.69C87.4218 13.69 87.4258 13.6901 87.4344 13.6945C87.4441 13.6994 87.4596 13.7099 87.4795 13.7305C87.521 13.7734 87.5654 13.8433 87.6063 13.936C87.6896 14.1245 87.73 14.3401 87.73 14.44H88.23ZM87.42 13.19C86.5823 13.19 85.9671 13.8218 85.5643 14.5085C85.1554 15.2058 84.9151 16.0398 84.8515 16.6124L85.3485 16.6676C85.4049 16.1602 85.6246 15.3942 85.9957 14.7615C86.3729 14.1182 86.8577 13.69 87.42 13.69V13.19ZM85.0394 16.8825C85.1935 16.9211 85.3839 16.97 85.58 16.97V16.47C85.4561 16.47 85.3265 16.4389 85.1606 16.3975L85.0394 16.8825ZM85.58 16.97C86.2041 16.97 86.8622 16.6293 87.3558 16.1676C87.8483 15.7068 88.23 15.0754 88.23 14.44H87.73C87.73 14.8846 87.4517 15.3932 87.0142 15.8024C86.5778 16.2107 86.0359 16.47 85.58 16.47V16.97ZM107.319 18.16L107.095 18.0482L107.086 18.0667L107.08 18.0865L107.319 18.16ZM98.8788 20.88L99.0919 20.7494L98.8976 20.4323L98.6773 20.7319L98.8788 20.88ZM97.2788 11.72V11.47L97.2759 11.47L97.2788 11.72ZM97.8388 11.76L97.7897 12.0051L98.0595 12.0591L98.0875 11.7854L97.8388 11.76ZM100.399 18.4L100.173 18.2916L100.132 18.378L100.159 18.47L100.399 18.4ZM101.479 5.84L101.723 5.78762L101.593 5.18096L101.266 5.70826L101.479 5.84ZM99.7988 15.2H99.5488L100.029 15.2985L99.7988 15.2ZM98.1188 18.64L98.3282 18.7766L98.3872 18.686L98.3617 18.5809L98.1188 18.64ZM97.7188 14.08H97.9688V13.9462L97.8574 13.872L97.7188 14.08ZM107.109 17.84C107.109 17.9026 107.109 17.9508 107.105 17.9924C107.101 18.0356 107.095 18.0493 107.095 18.0482L107.542 18.2718C107.583 18.1907 107.597 18.1044 107.603 18.0376C107.609 17.9692 107.609 17.8974 107.609 17.84H107.109ZM107.08 18.0865C106.766 19.1061 106.208 20.3451 105.424 21.3236C104.638 22.3036 103.652 22.99 102.479 22.99V23.49C103.865 23.49 104.98 22.6764 105.814 21.6364C106.649 20.5949 107.231 19.2939 107.558 18.2335L107.08 18.0865ZM102.479 22.99C101.082 22.99 99.8294 21.9526 99.0919 20.7494L98.6656 21.0106C99.4481 22.2874 100.835 23.49 102.479 23.49V22.99ZM98.6773 20.7319C98.1881 21.3973 97.515 22.1376 96.7448 22.7092C95.972 23.2827 95.1239 23.67 94.2788 23.67V24.17C95.2736 24.17 96.2255 23.7173 97.0427 23.1108C97.8625 22.5024 98.5694 21.7227 99.0802 21.0281L98.6773 20.7319ZM94.2788 23.67C93.3964 23.67 92.8233 23.2549 92.4581 22.6464C92.0847 22.024 91.9287 21.194 91.9287 20.4H91.4287C91.4287 21.246 91.5928 22.176 92.0294 22.9036C92.4742 23.6451 93.2011 24.17 94.2788 24.17V23.67ZM91.9287 20.4C91.9287 19.0267 92.4458 16.9068 93.3944 15.1276C94.3507 13.3339 95.6879 11.9883 97.2816 11.97L97.2759 11.47C95.3896 11.4917 93.9268 13.0661 92.9531 14.8924C91.9717 16.7332 91.4287 18.9333 91.4287 20.4H91.9287ZM97.2788 11.97C97.4799 11.97 97.617 11.9706 97.7897 12.0051L97.8878 11.5149C97.6605 11.4694 97.4776 11.47 97.2788 11.47V11.97ZM98.0875 11.7854C98.1865 10.8143 98.4841 8.77427 99.0761 6.98347C99.3726 6.08666 99.7374 5.26956 100.177 4.68145C100.617 4.09216 101.101 3.77 101.639 3.77V3.27C100.876 3.27 100.261 3.73284 99.7759 4.38229C99.2901 5.03294 98.9049 5.90834 98.6014 6.82653C97.9934 8.66573 97.691 10.7457 97.59 11.7346L98.0875 11.7854ZM101.639 3.77C102.333 3.77 102.763 4.28225 103.027 5.05582C103.289 5.82189 103.349 6.74935 103.349 7.36H103.849C103.849 6.73065 103.789 5.73811 103.5 4.89418C103.215 4.05775 102.664 3.27 101.639 3.27V3.77ZM103.349 7.36C103.349 10.8592 101.692 15.1351 100.173 18.2916L100.624 18.5084C102.146 15.3449 103.849 10.9808 103.849 7.36H103.349ZM100.159 18.47C100.302 18.9612 100.56 19.6674 100.944 20.2565C101.321 20.835 101.867 21.37 102.599 21.37V20.87C102.131 20.87 101.716 20.525 101.363 19.9835C101.017 19.4526 100.775 18.7988 100.639 18.33L100.159 18.47ZM102.599 21.37C103.257 21.37 103.764 21.0629 104.164 20.6345C104.559 20.2121 104.864 19.6584 105.127 19.1318C105.398 18.5904 105.62 18.0901 105.863 17.7114C106.113 17.3228 106.32 17.17 106.519 17.17V16.67C106.037 16.67 105.699 17.0422 105.443 17.4411C105.18 17.8499 104.934 18.3996 104.68 18.9082C104.418 19.4316 104.141 19.9279 103.799 20.293C103.464 20.6521 103.08 20.87 102.599 20.87V21.37ZM106.519 17.17C106.865 17.17 107.109 17.4593 107.109 17.84H107.609C107.609 17.2607 107.213 16.67 106.519 16.67V17.17ZM101.889 7.6C101.889 6.99013 101.848 6.37103 101.723 5.78762L101.234 5.89238C101.349 6.42896 101.389 7.00987 101.389 7.6H101.889ZM101.266 5.70826C100.62 6.75066 100.184 8.3301 99.9075 9.91713C99.63 11.5114 99.5088 13.1457 99.5088 14.32H100.009C100.009 13.1743 100.128 11.5686 100.4 10.0029C100.674 8.4299 101.098 6.92934 101.691 5.97173L101.266 5.70826ZM99.5088 14.32C99.5088 14.4897 99.5194 14.6476 99.5293 14.7922C99.5395 14.9393 99.5488 15.0703 99.5488 15.2H100.049C100.049 15.0497 100.038 14.9007 100.028 14.7578C100.018 14.6124 100.009 14.4703 100.009 14.32H99.5088ZM100.029 15.2985C100.994 13.0451 101.889 10.0889 101.889 7.6H101.389C101.389 9.99106 100.523 12.8749 99.569 15.1015L100.029 15.2985ZM93.5088 19.96C93.5088 20.3125 93.5493 20.8185 93.7158 21.2458C93.8831 21.6751 94.2096 22.09 94.7988 22.09V21.59C94.5079 21.59 94.3144 21.4049 94.1817 21.0642C94.0482 20.7215 94.0088 20.2875 94.0088 19.96H93.5088ZM94.7988 22.09C95.166 22.09 95.5332 21.9123 95.868 21.6727C96.2078 21.4295 96.5442 21.1008 96.8555 20.7513C97.4784 20.0517 98.0268 19.2387 98.3282 18.7766L97.9093 18.5034C97.6107 18.9613 97.0791 19.7483 96.482 20.4187C96.1833 20.7542 95.8747 21.053 95.577 21.2661C95.2743 21.4827 95.0115 21.59 94.7988 21.59V22.09ZM98.3617 18.5809C98.0092 17.1319 97.9688 15.7574 97.9688 14.24H97.4688C97.4688 15.7626 97.5083 17.1881 97.8758 18.6991L98.3617 18.5809ZM97.9688 14.24V14.08H97.4688V14.24H97.9688ZM97.8574 13.872C97.8011 13.8345 97.7516 13.7983 97.6948 13.7583C97.6406 13.72 97.5812 13.6792 97.5178 13.6429C97.3855 13.5673 97.2329 13.51 97.0388 13.51V14.01C97.1246 14.01 97.192 14.0327 97.2697 14.0771C97.3113 14.1008 97.3544 14.13 97.4065 14.1667C97.4559 14.2017 97.5164 14.2455 97.5801 14.288L97.8574 13.872ZM97.0388 13.51C96.5293 13.51 96.0645 13.8805 95.6756 14.3499C95.2758 14.8324 94.9039 15.4826 94.5867 16.1703C94.2686 16.86 94.0004 17.5985 93.8114 18.2649C93.6238 18.9262 93.5088 19.5351 93.5088 19.96H94.0088C94.0088 19.6049 94.1087 19.0488 94.2924 18.4013C94.4746 17.759 94.7339 17.045 95.0408 16.3797C95.3486 15.7124 95.6992 15.1051 96.0606 14.6689C96.433 14.2195 96.7682 14.01 97.0388 14.01V13.51ZM117.958 18.2L117.735 18.0882L117.725 18.1063L117.719 18.1257L117.958 18.2ZM109.478 17.76L109.725 17.8011L109.812 17.2779L109.353 17.5436L109.478 17.76ZM107.118 18.4L107.152 18.1523L106.985 18.1295L106.901 18.276L107.118 18.4ZM105.678 17.28L105.902 17.3918L105.958 17.28L105.902 17.1682L105.678 17.28ZM107.798 16.32L107.57 16.2185L107.413 16.57H107.798V16.32ZM112.038 15.6L111.852 15.4326L111.845 15.4417L112.038 15.6ZM117.788 17.92C117.788 17.9198 117.788 17.9215 117.788 17.9255C117.787 17.9293 117.787 17.9345 117.785 17.941C117.783 17.9541 117.779 17.9702 117.774 17.9882C117.763 18.0249 117.748 18.0615 117.735 18.0882L118.182 18.3118C118.229 18.2177 118.288 18.0566 118.288 17.92H117.788ZM117.719 18.1257C117.35 19.3109 116.609 20.6468 115.622 21.6825C114.634 22.7198 113.425 23.43 112.118 23.43V23.93C113.612 23.93 114.943 23.1202 115.984 22.0275C117.027 20.9332 117.806 19.5291 118.197 18.2743L117.719 18.1257ZM112.118 23.43C111.103 23.43 110.485 23.0132 110.106 22.3946C109.716 21.7569 109.568 20.8812 109.568 19.96H109.068C109.068 20.9188 109.22 21.9031 109.68 22.6554C110.152 23.4268 110.934 23.93 112.118 23.93V23.43ZM109.568 19.96C109.568 19.2483 109.608 18.503 109.725 17.8011L109.232 17.7189C109.109 18.457 109.068 19.2317 109.068 19.96H109.568ZM109.353 17.5436C108.603 17.9777 107.945 18.2605 107.152 18.1523L107.084 18.6477C108.051 18.7795 108.833 18.4223 109.603 17.9764L109.353 17.5436ZM106.901 18.276C106.775 18.4967 106.569 18.63 106.358 18.63V19.13C106.787 19.13 107.141 18.8633 107.335 18.524L106.901 18.276ZM106.358 18.63C106.195 18.63 106.02 18.5693 105.889 18.4648C105.761 18.3624 105.688 18.2296 105.688 18.08H105.188C105.188 18.4104 105.355 18.6776 105.577 18.8552C105.796 19.0307 106.081 19.13 106.358 19.13V18.63ZM105.688 18.08C105.688 17.9014 105.785 17.6254 105.902 17.3918L105.455 17.1682C105.331 17.4146 105.188 17.7786 105.188 18.08H105.688ZM105.902 17.1682C105.804 16.9727 105.768 16.7738 105.768 16.52H105.268C105.268 16.8262 105.312 17.1073 105.455 17.3918L105.902 17.1682ZM105.768 16.52C105.768 15.9845 106.016 14.8286 106.449 13.802C106.664 13.2912 106.917 12.8305 107.194 12.5018C107.476 12.1681 107.747 12.01 107.998 12.01V11.51C107.529 11.51 107.131 11.8019 106.812 12.1794C106.489 12.562 106.213 13.0738 105.988 13.608C105.54 14.6714 105.268 15.8955 105.268 16.52H105.768ZM107.998 12.01C108.183 12.01 108.356 12.1082 108.492 12.2801C108.629 12.4534 108.708 12.6793 108.708 12.88H109.208C109.208 12.5607 109.087 12.2266 108.884 11.9699C108.68 11.7118 108.374 11.51 107.998 11.51V12.01ZM108.708 12.88C108.708 13.4341 108.551 13.99 108.326 14.5522C108.097 15.1249 107.819 15.6564 107.57 16.2185L108.027 16.4215C108.257 15.9036 108.559 15.3151 108.79 14.7378C109.025 14.15 109.208 13.5259 109.208 12.88H108.708ZM107.798 16.57C107.83 16.57 107.858 16.575 107.899 16.584C107.931 16.5912 108.004 16.61 108.078 16.61V16.11C108.079 16.11 108.075 16.11 108.062 16.1078C108.048 16.1052 108.034 16.1019 108.007 16.096C107.958 16.085 107.886 16.07 107.798 16.07V16.57ZM108.078 16.61C108.759 16.61 109.25 16.3902 109.62 16.0505C109.981 15.7197 110.214 15.2867 110.408 14.8895C110.61 14.4752 110.763 14.1162 110.971 13.8463C111.164 13.5949 111.385 13.45 111.718 13.45V12.95C111.192 12.95 110.837 13.2001 110.574 13.5412C110.326 13.8638 110.141 14.2948 109.958 14.6705C109.767 15.0633 109.568 15.4203 109.282 15.682C109.007 15.9348 108.637 16.11 108.078 16.11V16.61ZM111.718 13.45C112.127 13.45 112.428 13.8385 112.428 14.32H112.928C112.928 13.6815 112.509 12.95 111.718 12.95V13.45ZM112.428 14.32C112.428 14.7742 112.215 15.0292 111.852 15.4328L112.224 15.7672C112.581 15.3708 112.928 14.9858 112.928 14.32H112.428ZM111.845 15.4417C111.774 15.5283 111.717 15.6473 111.671 15.7681C111.622 15.8941 111.576 16.0438 111.532 16.2068C111.445 16.5332 111.365 16.9289 111.297 17.3279C111.161 18.1208 111.068 18.9579 111.068 19.32H111.568C111.568 19.0021 111.655 18.1992 111.79 17.4121C111.856 17.0211 111.934 16.6418 112.015 16.3357C112.056 16.1825 112.097 16.0516 112.137 15.9485C112.179 15.8402 112.212 15.7817 112.232 15.7583L111.845 15.4417ZM111.068 19.32C111.068 19.7941 111.129 20.3785 111.358 20.8536C111.474 21.0942 111.637 21.3154 111.866 21.4763C112.097 21.6389 112.381 21.73 112.718 21.73V21.23C112.475 21.23 112.294 21.1661 112.154 21.0674C112.011 20.9671 111.897 20.8208 111.808 20.6364C111.627 20.2615 111.568 19.7659 111.568 19.32H111.068ZM112.718 21.73C114.198 21.73 115.032 20.5012 115.641 19.4228C115.959 18.8588 116.214 18.3396 116.485 17.9423C116.763 17.5356 116.987 17.37 117.198 17.37V16.87C116.709 16.87 116.353 17.2494 116.072 17.6602C115.785 18.0804 115.502 18.6512 115.205 19.1772C114.584 20.2788 113.878 21.23 112.718 21.23V21.73ZM117.198 17.37C117.516 17.37 117.788 17.6335 117.788 17.92H118.288C118.288 17.3265 117.76 16.87 117.198 16.87V17.37ZM121.102 22.88L121.249 23.0828L121.254 23.0784L121.102 22.88ZM123.062 17.44L122.859 17.2947L122.85 17.3065L122.843 17.3192L123.062 17.44ZM120.332 9.72C120.332 10.7837 119.526 11.83 118.462 11.83V12.33C119.879 12.33 120.832 10.9763 120.832 9.72H120.332ZM118.462 11.83C118.151 11.83 117.882 11.735 117.695 11.5749C117.511 11.4184 117.392 11.1885 117.392 10.88H116.892C116.892 11.3315 117.073 11.7016 117.37 11.9551C117.662 12.205 118.053 12.33 118.462 12.33V11.83ZM117.392 10.88C117.392 10.3413 117.552 9.67726 117.871 9.15529C118.188 8.63609 118.638 8.29 119.222 8.29V7.79C118.406 7.79 117.817 8.2839 117.444 8.89471C117.073 9.50274 116.892 10.2587 116.892 10.88H117.392ZM119.222 8.29C119.59 8.29 119.858 8.4612 120.043 8.72379C120.233 8.9939 120.332 9.36105 120.332 9.72H120.832C120.832 9.27895 120.712 8.8061 120.452 8.43621C120.186 8.05879 119.774 7.79 119.222 7.79V8.29ZM124.532 17.72C124.532 18.0509 124.398 18.4685 124.154 18.94C123.912 19.4066 123.575 19.9032 123.196 20.3855C122.436 21.352 121.531 22.2364 120.95 22.6816L121.254 23.0784C121.874 22.6036 122.808 21.688 123.589 20.6945C123.98 20.1968 124.337 19.6734 124.598 19.17C124.856 18.6715 125.032 18.1691 125.032 17.72H124.532ZM120.956 22.6773C120.273 23.1707 119.443 23.47 118.622 23.47V23.97C119.561 23.97 120.492 23.6293 121.249 23.0827L120.956 22.6773ZM118.622 23.47C117.634 23.47 117.046 23.0404 116.69 22.4116C116.321 21.7624 116.192 20.884 116.192 20H115.692C115.692 20.916 115.823 21.8976 116.255 22.6584C116.698 23.4396 117.45 23.97 118.622 23.97V23.47ZM116.192 20C116.192 19.3637 116.222 17.8524 116.473 16.5057C116.599 15.8301 116.776 15.2165 117.021 14.7781C117.267 14.3373 117.546 14.13 117.862 14.13V13.63C117.279 13.63 116.867 14.0277 116.585 14.5344C116.3 15.0435 116.111 15.7199 115.981 16.4143C115.722 17.8076 115.692 19.3563 115.692 20H116.192ZM117.862 14.13C118.292 14.13 118.572 14.4638 118.572 14.92H119.072C119.072 14.2562 118.632 13.63 117.862 13.63V14.13ZM118.572 14.92C118.572 15.4658 118.391 16.2405 118.198 17.1372C118.008 18.0148 117.812 18.9896 117.812 19.88H118.312C118.312 19.0504 118.496 18.1252 118.687 17.2428C118.873 16.3795 119.072 15.5342 119.072 14.92H118.572ZM117.812 19.88C117.812 20.2294 117.81 20.7246 117.951 21.132C118.024 21.3411 118.14 21.5445 118.328 21.6952C118.519 21.8484 118.764 21.93 119.062 21.93V21.43C118.86 21.43 118.73 21.3766 118.64 21.3048C118.547 21.2305 118.476 21.1189 118.423 20.968C118.315 20.6554 118.312 20.2506 118.312 19.88H117.812ZM119.062 21.93C119.541 21.93 120.004 21.7011 120.424 21.379C120.847 21.0544 121.252 20.6155 121.619 20.1496C122.352 19.2174 122.96 18.142 123.281 17.5608L122.843 17.3192C122.524 17.898 121.932 18.9426 121.226 19.8404C120.872 20.2895 120.497 20.6931 120.12 20.9823C119.74 21.2739 119.383 21.43 119.062 21.43V21.93ZM123.266 17.5853C123.452 17.3244 123.707 17.13 123.942 17.13V16.63C123.457 16.63 123.072 16.9956 122.859 17.2947L123.266 17.5853ZM123.942 17.13C124.284 17.13 124.532 17.3781 124.532 17.72H125.032C125.032 17.1019 124.56 16.63 123.942 16.63V17.13ZM136.82 18.16L137.036 18.2851L137.04 18.2785L137.044 18.2718L136.82 18.16ZM131.54 20.36L131.58 20.1133L131.394 20.0828L131.314 20.2538L131.54 20.36ZM125.02 18.24L124.848 18.0584L124.77 18.1324V18.24H125.02ZM129.74 19.72L129.971 19.8162L130.048 19.63L129.883 19.5148L129.74 19.72ZM132.02 18.56L131.776 18.5058L131.723 18.7435L131.959 18.8025L132.02 18.56ZM129.26 4.48L129.276 4.23049L129.193 4.2253L129.123 4.27076L129.26 4.48ZM125.14 15.56L124.893 15.5208L124.769 16.3045L125.32 15.7336L125.14 15.56ZM136.69 17.68C136.69 17.7968 136.661 17.9188 136.596 18.0482L137.044 18.2718C137.139 18.0812 137.19 17.8832 137.19 17.68H136.69ZM136.604 18.0349C135.63 19.7204 133.469 20.4216 131.58 20.1133L131.5 20.6067C133.531 20.9384 135.93 20.1996 137.036 18.2851L136.604 18.0349ZM131.314 20.2538C130.862 21.215 130.229 22.2055 129.429 22.9523C128.631 23.6975 127.679 24.19 126.58 24.19V24.69C127.841 24.69 128.909 24.1225 129.771 23.3177C130.631 22.5145 131.298 21.465 131.766 20.4662L131.314 20.2538ZM126.58 24.19C125.836 24.19 125.263 23.9616 124.814 23.591C124.361 23.2168 124.022 22.6866 123.772 22.0665C123.27 20.8218 123.15 19.2707 123.15 18.08H122.65C122.65 19.2893 122.77 20.9182 123.308 22.2535C123.578 22.9234 123.959 23.5332 124.496 23.9765C125.037 24.4234 125.724 24.69 126.58 24.69V24.19ZM123.15 18.08C123.15 16.4731 123.753 12.5495 124.878 9.02602C125.44 7.26531 126.127 5.62289 126.922 4.42583C127.725 3.21632 128.593 2.53 129.5 2.53V2.03C128.327 2.03 127.33 2.90867 126.506 4.14917C125.673 5.4021 124.97 7.09468 124.402 8.87398C123.267 12.4305 122.65 16.4069 122.65 18.08H123.15ZM129.5 2.53C130.344 2.53 130.911 2.99619 131.28 3.6745C131.655 4.36195 131.81 5.2473 131.81 6H132.31C132.31 5.19269 132.145 4.21805 131.72 3.4355C131.289 2.64381 130.576 2.03 129.5 2.03V2.53ZM131.81 6C131.81 8.12961 130.829 10.4308 129.455 12.5698C128.083 14.7039 126.337 16.6486 124.848 18.0584L125.192 18.4216C126.703 16.9914 128.477 15.0161 129.875 12.8402C131.271 10.6692 132.31 8.27039 132.31 6H131.81ZM124.77 18.24C124.77 18.8393 124.872 19.8876 125.178 20.7949C125.331 21.2482 125.54 21.6841 125.828 22.0108C126.12 22.3424 126.501 22.57 126.98 22.57V22.07C126.679 22.07 126.425 21.9326 126.203 21.6805C125.977 21.4234 125.794 21.0568 125.652 20.6351C125.368 19.7924 125.27 18.8007 125.27 18.24H124.77ZM126.98 22.57C127.65 22.57 128.303 22.0905 128.812 21.5516C129.331 21.0012 129.758 20.326 129.971 19.8162L129.509 19.6238C129.322 20.074 128.929 20.6988 128.448 21.2084C127.957 21.7295 127.43 22.07 126.98 22.07V22.57ZM129.883 19.5148C129.053 18.9376 128.71 17.9512 128.71 16.92H128.21C128.21 18.0488 128.587 19.2224 129.597 19.9252L129.883 19.5148ZM128.71 16.92C128.71 16.5635 128.89 16.2053 129.178 15.9309C129.466 15.656 129.836 15.49 130.18 15.49V14.99C129.684 14.99 129.194 15.224 128.832 15.5691C128.47 15.9147 128.21 16.3965 128.21 16.92H128.71ZM130.18 15.49C131.24 15.49 131.89 16.3716 131.89 17.44H132.39C132.39 16.1884 131.6 14.99 130.18 14.99V15.49ZM131.89 17.44C131.89 17.7833 131.852 18.165 131.776 18.5058L132.264 18.6142C132.348 18.235 132.39 17.8167 132.39 17.44H131.89ZM131.959 18.8025C132.154 18.8512 132.345 18.85 132.5 18.85V18.35C132.335 18.35 132.206 18.3488 132.081 18.3175L131.959 18.8025ZM132.5 18.85C133.736 18.85 134.471 18.3865 135.007 17.9303C135.138 17.8189 135.257 17.7075 135.365 17.6079C135.475 17.5065 135.572 17.4186 135.665 17.3446C135.852 17.1959 135.994 17.13 136.14 17.13V16.63C135.826 16.63 135.573 16.7791 135.354 16.9529C135.244 17.0402 135.135 17.1404 135.026 17.2405C134.916 17.3425 134.804 17.4461 134.683 17.5497C134.209 17.9535 133.584 18.35 132.5 18.35V18.85ZM136.14 17.13C136.41 17.13 136.69 17.386 136.69 17.68H137.19C137.19 17.094 136.67 16.63 136.14 16.63V17.13ZM130.19 6.08C130.19 5.85727 130.181 5.43951 130.082 5.06603C130.032 4.87951 129.956 4.6847 129.832 4.52908C129.702 4.3669 129.518 4.24566 129.276 4.23049L129.244 4.72951C129.322 4.73433 129.383 4.7681 129.441 4.84092C129.504 4.92029 129.558 5.04049 129.598 5.19397C129.679 5.50049 129.69 5.86273 129.69 6.08H130.19ZM129.123 4.27076C128.544 4.64944 128.027 5.40699 127.571 6.31888C127.111 7.24093 126.694 8.36094 126.332 9.50987C125.607 11.808 125.095 14.2502 124.893 15.5208L125.387 15.5992C125.585 14.3498 126.093 11.932 126.808 9.66013C127.166 8.52405 127.574 7.43157 128.019 6.54237C128.468 5.64301 128.936 4.99056 129.397 4.68924L129.123 4.27076ZM125.32 15.7336C126.452 14.5608 127.666 13.0236 128.599 11.3465C129.529 9.67207 130.19 7.83902 130.19 6.08H129.69C129.69 7.72097 129.071 9.46793 128.161 11.1035C127.254 12.7364 126.068 14.2392 124.96 15.3864L125.32 15.7336Z" fill="#9747FF"/>
</svg>
